<svg width="14" height="8" viewBox="0 0 14 8" fill="none" xmlns="http://www.w3.org/2000/svg">
<path d="M0.706849 1.707L6.29285 7.293C6.48038 7.48047 6.73468 7.58579 6.99985 7.58579C7.26501 7.58579 7.51932 7.48047 7.70685 7.293L13.2928 1.707C13.4327 1.56715 13.5279 1.38898 13.5664 1.19503C13.605 1.00108 13.5852 0.800046 13.5095 0.617346C13.4339 0.434646 13.3057 0.278482 13.1413 0.168598C12.9769 0.0587139 12.7836 4.22243e-05 12.5858 0H1.41385C1.2161 4.22243e-05 1.0228 0.0587139 0.858391 0.168598C0.693981 0.278482 0.565842 0.434646 0.490172 0.617346C0.414502 0.800046 0.394698 1.00108 0.433266 1.19503C0.471833 1.38898 0.56704 1.56715 0.706849 1.707Z" fill="#C2C8CD"/>
</svg>
