<svg width="40" height="39" viewBox="0 0 40 39" fill="none" xmlns="http://www.w3.org/2000/svg">
<path d="M38.4296 28.3373C37.4572 27.4126 36.1116 26.8394 34.6261 26.8394C34.302 26.8394 33.9857 26.8681 33.6792 26.9238C33.0548 27.034 32.4684 27.2481 31.9314 27.5348C26.1071 30.6483 21.7649 30.9999 20.0284 30.9999C20.0093 30.9999 19.9919 30.9999 19.9744 30.9999C18.5379 30.9999 15.3037 30.7339 10.9427 28.8926C10.8975 29.2994 10.8605 29.7213 10.8279 30.1507C10.7889 30.7261 10.7524 31.3064 10.7453 31.9322C10.7357 32.8024 10.5244 33.685 10.032 34.4951C9.64906 35.1242 9.14701 35.6474 8.5687 36.0533C8.35362 36.2033 8.11471 36.3115 7.88086 36.4287C7.94113 36.399 8.01074 36.385 8.06982 36.3536C13.8941 33.24 18.2364 32.887 19.9744 32.887C19.9919 32.887 20.0093 32.887 20.0284 32.887C21.7649 32.887 26.1071 33.24 31.9314 36.3536C32.4684 36.6401 33.0548 36.8543 33.6792 36.9645C33.9857 37.0188 34.302 37.0474 34.6261 37.0474C36.1116 37.0474 37.4572 36.4758 38.4296 35.5509C39.4003 34.6263 40.0009 33.3516 40.0009 31.9426C40.0009 30.5353 39.4003 29.2606 38.4296 28.3373Z" fill="#1BB7E0"/>
<path opacity="0.35" d="M38.4296 28.3373C37.4572 27.4126 36.1116 26.8394 34.6261 26.8394C34.302 26.8394 33.9857 26.8681 33.6792 26.9238C33.0548 27.034 32.4684 27.2481 31.9314 27.5348C26.1071 30.6483 21.7649 30.9999 20.0284 30.9999C20.0093 30.9999 19.9919 30.9999 19.9744 30.9999C18.5379 30.9999 15.3037 30.7339 10.9427 28.8926C10.8975 29.2994 10.8605 29.7213 10.8279 30.1507C10.7889 30.7261 10.7524 31.3064 10.7453 31.9322C10.7357 32.8024 10.5244 33.685 10.032 34.4951C9.64906 35.1242 9.14701 35.6474 8.5687 36.0533C8.35362 36.2033 8.11471 36.3115 7.88086 36.4287C7.94113 36.399 8.01074 36.385 8.06982 36.3536C13.8941 33.24 18.2364 32.887 19.9744 32.887C19.9919 32.887 20.0093 32.887 20.0284 32.887C21.7649 32.887 26.1071 33.24 31.9314 36.3536C32.4684 36.6401 33.0548 36.8543 33.6792 36.9645C33.9857 37.0188 34.302 37.0474 34.6261 37.0474C36.1116 37.0474 37.4572 36.4758 38.4296 35.5509C39.4003 34.6263 40.0009 33.3516 40.0009 31.9426C40.0009 30.5353 39.4003 29.2606 38.4296 28.3373Z" fill="url(#paint0_linear)"/>
<path d="M17.3251 12.3128C16.9327 12.0926 16.5625 11.8301 16.2304 11.5224C15.8919 11.2101 15.5918 10.8526 15.3438 10.4453C14.8289 9.59625 14.6162 8.66739 14.6425 7.75635C14.6406 7.80537 14.6325 7.85449 14.632 7.90343C14.5606 14.2497 12.7097 17.9953 11.8423 19.4239C11.8326 19.4391 11.8247 19.4527 11.8152 19.4691C11.2195 20.4498 9.85629 22.3579 7.19828 24.503C5.98605 25.4821 4.50363 26.5109 2.70197 27.5232C2.29058 27.7555 1.90282 28.033 1.55488 28.3617C1.23881 28.662 0.956012 29.0045 0.722363 29.3907C0.126575 30.3682 -0.0893984 31.4542 0.0329367 32.4951C0.210879 34.0565 1.14507 35.5182 2.68767 36.3644C3.10562 36.5938 3.54104 36.7627 3.98579 36.8759C5.57297 37.2801 7.26332 36.9633 8.5678 36.0537C9.14611 35.6478 9.64817 35.1245 10.0311 34.4955C10.5235 33.6853 10.7348 32.8027 10.7444 31.9325C10.8158 25.5862 12.6667 21.839 13.5359 20.4121C13.5454 20.3969 13.5533 20.3818 13.5629 20.3682C14.2047 19.3109 15.7362 17.1777 18.8185 14.8321C19.1796 14.5566 19.5954 14.2758 20.0003 13.996C19.19 13.4366 18.323 12.8735 17.3251 12.3128Z" fill="#E22B46"/>
<path opacity="0.35" d="M17.3251 12.3128C16.9327 12.0926 16.5625 11.8301 16.2304 11.5224C15.8919 11.2101 15.5918 10.8526 15.3438 10.4453C14.8289 9.59625 14.6162 8.66739 14.6425 7.75635C14.6406 7.80537 14.6325 7.85449 14.632 7.90343C14.5606 14.2497 12.7097 17.9953 11.8423 19.4239C11.8326 19.4391 11.8247 19.4527 11.8152 19.4691C11.2195 20.4498 9.85629 22.3579 7.19828 24.503C5.98605 25.4821 4.50363 26.5109 2.70197 27.5232C2.29058 27.7555 1.90282 28.033 1.55488 28.3617C1.23881 28.662 0.956012 29.0045 0.722363 29.3907C0.126575 30.3682 -0.0893984 31.4542 0.0329367 32.4951C0.210879 34.0565 1.14507 35.5182 2.68767 36.3644C3.10562 36.5938 3.54104 36.7627 3.98579 36.8759C5.57297 37.2801 7.26332 36.9633 8.5678 36.0537C9.14611 35.6478 9.64817 35.1245 10.0311 34.4955C10.5235 33.6853 10.7348 32.8027 10.7444 31.9325C10.8158 25.5862 12.6667 21.839 13.5359 20.4121C13.5454 20.3969 13.5533 20.3818 13.5629 20.3682C14.2047 19.3109 15.7362 17.1777 18.8185 14.8321C19.1796 14.5566 19.5954 14.2758 20.0003 13.996C19.19 13.4366 18.323 12.8735 17.3251 12.3128Z" fill="url(#paint1_linear)"/>
<path d="M16.2305 11.5222C16.5626 11.8298 16.9328 12.0923 17.3252 12.3125C23.0765 15.5438 25.5693 18.938 26.4384 20.368C26.4478 20.3815 26.4558 20.3966 26.4638 20.4118C27.1822 21.5914 28.5562 24.3848 29.0572 28.893C29.9728 28.5065 30.92 28.0751 31.9306 27.5349C32.4676 27.2482 33.054 27.0342 33.6784 26.9239C33.9849 26.8682 34.3012 26.8395 34.6253 26.8395C35.6492 26.8395 36.5967 27.1266 37.4114 27.5988C37.3721 27.5757 37.3374 27.5452 37.2976 27.5229C31.5461 24.2917 29.0535 20.8959 28.1844 19.4689C28.1764 19.4524 28.1669 19.4388 28.159 19.4236C27.2899 17.9951 25.439 14.2495 25.369 7.90469C25.3643 7.47175 25.3086 7.03739 25.1959 6.61039C25.08 6.17594 24.9036 5.74753 24.6542 5.34023C23.9121 4.11985 22.7189 3.30073 21.3907 2.96292C20.1198 2.63849 18.7217 2.75625 17.4777 3.3837C16.1686 4.04593 15.1915 5.20908 14.807 6.56966C14.4511 7.83077 14.602 9.22162 15.3439 10.445C15.5918 10.8523 15.892 11.2098 16.2305 11.5222Z" fill="#68CE46"/>
<path opacity="0.35" d="M16.2305 11.5222C16.5626 11.8298 16.9328 12.0923 17.3252 12.3125C23.0765 15.5438 25.5693 18.938 26.4384 20.368C26.4478 20.3815 26.4558 20.3966 26.4638 20.4118C27.1822 21.5914 28.5562 24.3848 29.0572 28.893C29.9728 28.5065 30.92 28.0751 31.9306 27.5349C32.4676 27.2482 33.054 27.0342 33.6784 26.9239C33.9849 26.8682 34.3012 26.8395 34.6253 26.8395C35.6492 26.8395 36.5967 27.1266 37.4114 27.5988C37.3721 27.5757 37.3374 27.5452 37.2976 27.5229C31.5461 24.2917 29.0535 20.8959 28.1844 19.4689C28.1764 19.4524 28.1669 19.4388 28.159 19.4236C27.2899 17.9951 25.439 14.2495 25.369 7.90469C25.3643 7.47175 25.3086 7.03739 25.1959 6.61039C25.08 6.17594 24.9036 5.74753 24.6542 5.34023C23.9121 4.11985 22.7189 3.30073 21.3907 2.96292C20.1198 2.63849 18.7217 2.75625 17.4777 3.3837C16.1686 4.04593 15.1915 5.20908 14.807 6.56966C14.4511 7.83077 14.602 9.22162 15.3439 10.445C15.5918 10.8523 15.892 11.2098 16.2305 11.5222Z" fill="url(#paint2_linear)"/>
<defs>
<linearGradient id="paint0_linear" x1="26.4239" y1="40.2113" x2="21.278" y2="25.3209" gradientUnits="userSpaceOnUse">
<stop stop-color="#004854" stop-opacity="0"/>
<stop offset="1" stop-color="#004854"/>
</linearGradient>
<linearGradient id="paint1_linear" x1="1.59967e-07" y1="22.4026" x2="20.0003" y2="22.4026" gradientUnits="userSpaceOnUse">
<stop stop-color="#6D000D" stop-opacity="0"/>
<stop offset="1" stop-color="#6D000D"/>
</linearGradient>
<linearGradient id="paint2_linear" x1="31.443" y1="11.5385" x2="21.6463" y2="21.8565" gradientUnits="userSpaceOnUse">
<stop stop-opacity="0"/>
<stop offset="1"/>
</linearGradient>
</defs>
</svg>
