<svg width="155" height="24" viewBox="0 0 155 24" fill="none" xmlns="http://www.w3.org/2000/svg">
<circle cx="25" cy="12" r="12" fill="#ECEFF2"/>
<circle cx="12" cy="12" r="12" fill="#2078C4"/>
<path d="M56.54 5.18C58.54 5.23333 60.14 5.73333 61.34 6.68C62.54 7.61333 63.14 8.94667 63.14 10.68V10.84C63.14 12.5733 62.52 13.9133 61.28 14.86C60.04 15.8067 58.46 16.3067 56.54 16.36V18.2H53.32V16.36C51.32 16.3067 49.72 15.8133 48.52 14.88C47.32 13.9333 46.72 12.5933 46.72 10.86V10.72C46.72 8.98667 47.34 7.64667 48.58 6.7C49.82 5.74 51.4 5.23333 53.32 5.18V3.38H56.54V5.18ZM53.32 7.5C51.08 7.62 49.96 8.69333 49.96 10.72V10.86C49.96 11.9267 50.26 12.7133 50.86 13.22C51.4733 13.7267 52.2933 13.9933 53.32 14.02V7.5ZM56.54 14.04C57.5533 14.0133 58.3667 13.7467 58.98 13.24C59.6067 12.72 59.92 11.92 59.92 10.84V10.68C59.92 8.69333 58.7933 7.64 56.54 7.52V14.04ZM67.9934 18.22C66.9801 18.22 66.1601 17.9733 65.5334 17.48C64.8401 16.9333 64.4934 16.14 64.4934 15.1C64.4934 13.94 65.0001 13.0733 66.0134 12.5C66.9201 11.9933 68.2268 11.74 69.9334 11.74H71.1134V11.32C71.1134 10.6533 70.9868 10.1667 70.7334 9.86C70.4934 9.55333 70.0534 9.4 69.4134 9.4C68.3868 9.4 67.7934 9.89333 67.6334 10.88H64.8934C64.9734 9.70667 65.4601 8.8 66.3534 8.16C67.1668 7.58667 68.2468 7.3 69.5934 7.3C70.9401 7.3 71.9934 7.59333 72.7534 8.18C73.5668 8.82 73.9734 9.82 73.9734 11.18V18H71.1534V16.74C70.4468 17.7267 69.3934 18.22 67.9934 18.22ZM68.8534 16.2C69.5068 16.2 70.0468 16.0333 70.4734 15.7C70.9001 15.3667 71.1134 14.9133 71.1134 14.34V13.46H69.9934C69.1134 13.46 68.4468 13.5733 67.9934 13.8C67.5534 14.0267 67.3334 14.4067 67.3334 14.94C67.3334 15.78 67.8401 16.2 68.8534 16.2ZM79.2225 13.06V18H76.3425V7.54H79.2225V12.02L82.6025 7.54H85.6825L81.8625 12.32L85.9825 18H82.7025L79.2225 13.06ZM95.5763 9.6H92.4763V18H89.5963V9.6H86.4963V7.54H95.5763V9.6ZM101.909 16.02C102.722 16.02 103.349 15.74 103.789 15.18C104.242 14.62 104.469 13.84 104.469 12.84V12.7C104.469 11.7 104.242 10.92 103.789 10.36C103.349 9.78667 102.722 9.5 101.909 9.5C101.109 9.5 100.482 9.78 100.029 10.34C99.5756 10.8867 99.3489 11.66 99.3489 12.66V12.82C99.3489 13.8333 99.5689 14.62 100.009 15.18C100.449 15.74 101.082 16.02 101.909 16.02ZM101.889 18.22C100.289 18.22 98.9822 17.7333 97.9689 16.76C96.9156 15.7867 96.3889 14.4933 96.3889 12.88V12.72C96.3889 11.1067 96.9156 9.79333 97.9689 8.78C98.9956 7.79333 100.309 7.3 101.909 7.3C103.522 7.3 104.836 7.78667 105.849 8.76C106.889 9.77333 107.409 11.0733 107.409 12.66V12.82C107.409 14.4333 106.882 15.7467 105.829 16.76C104.816 17.7333 103.502 18.22 101.889 18.22ZM109.334 7.54H112.234V9.18C112.54 8.63333 112.987 8.18667 113.574 7.84C114.174 7.48 114.84 7.3 115.574 7.3C116.894 7.3 117.974 7.76 118.814 8.68C119.694 9.64 120.134 10.9667 120.134 12.66V12.82C120.134 14.5 119.7 15.8267 118.834 16.8C118.007 17.7467 116.92 18.22 115.574 18.22C114.8 18.22 114.12 18.0533 113.534 17.72C112.947 17.3733 112.514 16.9333 112.234 16.4V21.56H109.334V7.54ZM114.714 15.96C115.514 15.96 116.127 15.7 116.554 15.18C116.98 14.6467 117.194 13.8667 117.194 12.84V12.68C117.194 11.64 116.967 10.8533 116.514 10.32C116.06 9.78667 115.454 9.52 114.694 9.52C113.907 9.52 113.28 9.79333 112.814 10.34C112.36 10.8733 112.134 11.6533 112.134 12.68V12.84C112.134 13.8667 112.36 14.6467 112.814 15.18C113.267 15.7 113.9 15.96 114.714 15.96ZM121.968 18V7.54H124.828V14.52L128.868 7.54H131.728V18H128.868V11.02L124.828 18H121.968ZM141.013 13.7H137.133V18H134.273V7.54H137.133V11.64H141.013V7.54H143.873V18H141.013V13.7ZM149.34 9.6V18H146.48V7.54H153.66V9.6H149.34Z" fill="#191C1F"/>
</svg>
