<svg width="80" height="80" viewBox="0 0 80 80" fill="none" xmlns="http://www.w3.org/2000/svg">
<circle cx="40" cy="40" r="40" fill="#F13636"/>
<path d="M41.885 40.0002L55.609 26.2762C55.8519 26.0247 55.9863 25.6879 55.9833 25.3383C55.9802 24.9888 55.84 24.6543 55.5928 24.4071C55.3456 24.1599 55.0112 24.0197 54.6616 24.0167C54.312 24.0136 53.9752 24.148 53.7237 24.3909L39.9997 38.1149L26.2757 24.3909C26.0242 24.148 25.6874 24.0136 25.3378 24.0167C24.9883 24.0197 24.6538 24.1599 24.4066 24.4071C24.1594 24.6543 24.0192 24.9888 24.0161 25.3383C24.0131 25.6879 24.1475 26.0247 24.3904 26.2762L38.1144 40.0002L24.3904 53.7242C24.1404 53.9743 24 54.3133 24 54.6669C24 55.0204 24.1404 55.3595 24.3904 55.6096C24.6404 55.8595 24.9795 55.9999 25.333 55.9999C25.6866 55.9999 26.0257 55.8595 26.2757 55.6096L39.9997 41.8856L53.7237 55.6096C53.9737 55.8595 54.3128 55.9999 54.6664 55.9999C55.0199 55.9999 55.359 55.8595 55.609 55.6096C55.859 55.3595 55.9994 55.0204 55.9994 54.6669C55.9994 54.3133 55.859 53.9743 55.609 53.7242L41.885 40.0002Z" fill="white"/>
</svg>
