<svg width="64" height="64" viewBox="0 0 64 64" fill="none" xmlns="http://www.w3.org/2000/svg">
<path d="M14.5228 11.2561C9.02119 15.8914 5.58624 22.5223 4.97361 29.6902C4.36099 36.8581 6.62089 43.9757 11.2561 49.4773L7.52797 52.6184C2.05965 46.128 -0.606401 37.7312 0.116323 29.2751C0.839046 20.819 4.89134 12.9963 11.3817 7.52797C17.8722 2.05965 26.269 -0.606401 34.7251 0.116323C43.1812 0.839046 51.0039 4.89134 56.4722 11.3817L52.744 14.5228C48.1088 9.02119 41.4778 5.58624 34.31 4.97362C27.1421 4.36099 20.0245 6.62089 14.5228 11.2561Z" fill="#2078C4"/>
<path d="M49.4774 52.744C54.979 48.1088 58.4139 41.4778 59.0266 34.31L63.8838 34.7252C63.1611 43.1813 59.1088 51.0039 52.6184 56.4722C46.128 61.9405 37.7312 64.6066 29.2751 63.8839C20.819 63.1611 12.9963 59.1088 7.52797 52.6184L11.2561 49.4773C15.8914 54.979 22.5223 58.4139 29.6902 59.0266C36.8581 59.6392 43.9757 57.3793 49.4774 52.744Z" fill="#2078C4"/>
</svg>
