<svg width="80" height="80" viewBox="0 0 80 80" fill="none" xmlns="http://www.w3.org/2000/svg">
<circle cx="40" cy="40" r="40" fill="#25CD82"/>
<path d="M26.0178 44.6494L31.5725 50.2041C32.3226 50.954 33.3398 51.3752 34.4005 51.3752C35.4612 51.3752 36.4784 50.954 37.2285 50.2041L54.3832 33.0494C54.626 32.7979 54.7604 32.4611 54.7574 32.1115C54.7544 31.7619 54.6141 31.4275 54.3669 31.1803C54.1197 30.9331 53.7853 30.7929 53.4357 30.7898C53.0861 30.7868 52.7493 30.9212 52.4978 31.1641L35.3432 48.3187C35.0931 48.5687 34.7541 48.7091 34.4005 48.7091C34.047 48.7091 33.7079 48.5687 33.4578 48.3187L27.9032 42.7641C27.6517 42.5212 27.3149 42.3868 26.9653 42.3898C26.6157 42.3929 26.2813 42.5331 26.0341 42.7803C25.7869 43.0275 25.6466 43.3619 25.6436 43.7115C25.6406 44.0611 25.775 44.3979 26.0178 44.6494Z" fill="white"/>
</svg>
