<svg width="80" height="80" viewBox="0 0 80 80" fill="none" xmlns="http://www.w3.org/2000/svg">
<circle cx="40" cy="40" r="40" fill="#2078C4"/>
<path d="M26.0169 44.6492L31.5715 50.2038C32.3216 50.9537 33.3389 51.375 34.3995 51.375C35.4602 51.375 36.4774 50.9537 37.2275 50.2038L54.3822 33.0492C54.6251 32.7977 54.7595 32.4609 54.7564 32.1113C54.7534 31.7617 54.6132 31.4273 54.366 31.1801C54.1187 30.9329 53.7843 30.7926 53.4347 30.7896C53.0851 30.7866 52.7483 30.921 52.4969 31.1638L35.3422 48.3185C35.0922 48.5685 34.7531 48.7089 34.3995 48.7089C34.046 48.7089 33.7069 48.5685 33.4569 48.3185L27.9022 42.7638C27.6507 42.521 27.3139 42.3866 26.9643 42.3896C26.6147 42.3926 26.2803 42.5329 26.0331 42.7801C25.7859 43.0273 25.6457 43.3617 25.6426 43.7113C25.6396 44.0609 25.774 44.3977 26.0169 44.6492Z" fill="white"/>
</svg>
