<svg width="24" height="24" viewBox="0 0 24 24" fill="none" xmlns="http://www.w3.org/2000/svg">
<path d="M13.414 11.9999L23.707 1.70692C23.8892 1.51832 23.99 1.26571 23.9877 1.00352C23.9854 0.741321 23.8803 0.490508 23.6948 0.3051C23.5094 0.119692 23.2586 0.0145233 22.9964 0.0122448C22.7342 0.00996641 22.4816 0.110761 22.293 0.292919L12 10.5859L1.70703 0.292919C1.51843 0.110761 1.26583 0.00996641 1.00363 0.0122448C0.741433 0.0145233 0.49062 0.119692 0.305212 0.3051C0.119804 0.490508 0.014635 0.741321 0.0123566 1.00352C0.0100781 1.26571 0.110873 1.51832 0.293031 1.70692L10.586 11.9999L0.293031 22.2929C0.10556 22.4804 0.000244141 22.7348 0.000244141 22.9999C0.000244141 23.2651 0.10556 23.5194 0.293031 23.7069C0.480558 23.8944 0.734866 23.9997 1.00003 23.9997C1.26519 23.9997 1.5195 23.8944 1.70703 23.7069L12 13.4139L22.293 23.7069C22.4806 23.8944 22.7349 23.9997 23 23.9997C23.2652 23.9997 23.5195 23.8944 23.707 23.7069C23.8945 23.5194 23.9998 23.2651 23.9998 22.9999C23.9998 22.7348 23.8945 22.4804 23.707 22.2929L13.414 11.9999Z" fill="#83898F"/>
</svg>
