<svg width="24" height="24" viewBox="0 0 24 24" fill="none" xmlns="http://www.w3.org/2000/svg">
<circle cx="12" cy="12" r="12" fill="#5E646A"/>
<g clip-path="url(#clip0)">
<path d="M5.68367 16.1527C5.24605 16.5902 5.00013 17.1836 5 17.8024V19H6.19758C6.81637 18.9999 7.40977 18.7539 7.84725 18.3163L15.6307 10.5329L13.4671 8.36932L5.68367 16.1527Z" fill="white"/>
<path d="M18.5011 5.49878C18.359 5.35658 18.1904 5.24378 18.0047 5.16681C17.819 5.08985 17.62 5.05023 17.419 5.05023C17.218 5.05023 17.019 5.08985 16.8333 5.16681C16.6476 5.24378 16.479 5.35658 16.3369 5.49878L14.2917 7.54453L16.4553 9.70811L18.5011 7.66294C18.6433 7.52089 18.7561 7.35221 18.833 7.16654C18.91 6.98087 18.9496 6.78185 18.9496 6.58086C18.9496 6.37987 18.91 6.18085 18.833 5.99518C18.7561 5.80951 18.6433 5.64082 18.5011 5.49878Z" fill="white"/>
</g>
<defs>
<clipPath id="clip0">
<rect width="14" height="14" fill="white" transform="translate(5 5)"/>
</clipPath>
</defs>
</svg>
