<svg width="20" height="20" viewBox="0 0 20 20" fill="none" xmlns="http://www.w3.org/2000/svg">
<g clip-path="url(#clip0)">
<path d="M14.5745 4.77591H17.1723L13.2041 0.611938V3.41086C13.2041 4.16754 13.8125 4.77591 14.5745 4.77591Z" fill="#2078C4"/>
<path d="M12.3576 3.41064V-0.0390625H4.23065C3.17764 -0.0390625 2.30469 0.828705 2.30469 1.88156V18.0403C2.30469 19.0933 3.17764 19.9609 4.23065 19.9609H15.8286C16.8814 19.9609 17.7544 19.0932 17.7544 18.0403V5.62225H14.5744C13.347 5.62225 12.3576 4.63287 12.3576 3.41064ZM6.64337 10.3049C6.81259 10.1462 7.08252 10.1567 7.24121 10.3261L9.60632 12.8658V6.82343C9.60632 6.59058 9.79675 6.40015 10.0296 6.40015C10.2625 6.40015 10.4529 6.59058 10.4529 6.82343V12.8709L12.818 10.3313C12.9767 10.162 13.2466 10.1514 13.4158 10.3101C13.5852 10.4689 13.5957 10.7387 13.437 10.9081L10.3365 14.2361C10.2571 14.3207 10.146 14.3683 10.0243 14.3683C9.90265 14.3683 9.79675 14.3207 9.71222 14.2361L6.61163 10.9081C6.46347 10.7333 6.474 10.4689 6.64337 10.3049ZM14.8073 16.7334C14.8073 16.9662 14.6169 17.1567 14.384 17.1567H5.67505C5.4422 17.1567 5.25177 16.9662 5.25177 16.7334C5.25177 16.5006 5.4422 16.3101 5.67505 16.3101H14.3893C14.6222 16.3101 14.8073 16.5007 14.8073 16.7334Z" fill="#2078C4"/>
</g>
<defs>
<clipPath id="clip0">
<rect width="20" height="20" fill="white"/>
</clipPath>
</defs>
</svg>
