<svg width="50" height="32" viewBox="0 0 50 32" fill="none" xmlns="http://www.w3.org/2000/svg">
<rect width="50" height="32" rx="4" fill="#F5F7FA"/>
<path d="M16.7598 26.0933V24.7582C16.8002 24.3132 16.4766 23.9491 16.0316 23.9086C15.9911 23.9086 15.9506 23.9086 15.9102 23.9086C15.627 23.9086 15.3033 24.03 15.1415 24.2727C14.9797 24.03 14.7369 23.8682 14.4537 23.9086C14.211 23.9086 13.9683 24.03 13.8469 24.2323V23.9491H13.4019V26.0933H13.8873V24.92C13.8469 24.6369 14.0492 24.3941 14.3324 24.3537C14.3728 24.3537 14.4133 24.3537 14.4133 24.3537C14.7369 24.3537 14.8583 24.5559 14.8583 24.92V26.0933H15.3438V24.92C15.3033 24.6369 15.5056 24.3941 15.7888 24.3537C15.8293 24.3537 15.8293 24.3537 15.8697 24.3537C16.1934 24.3537 16.3552 24.5559 16.3552 24.92V26.0933H16.7598ZM23.6779 23.9491H22.9092V23.3018H22.4238V23.9491H22.0192V24.3537H22.4642V25.3246C22.4642 25.8101 22.6665 26.1338 23.1924 26.1338C23.3947 26.1338 23.597 26.0933 23.7588 25.9719L23.6375 25.5674C23.5161 25.6483 23.3543 25.6887 23.2329 25.6887C22.9901 25.6887 22.9092 25.5269 22.9092 25.3246V24.3537H23.6779V23.9491ZM27.6427 23.9086C27.4 23.9086 27.1977 24.03 27.0763 24.2323V23.9895H26.6313V26.1338H27.0763V24.92C27.0763 24.5559 27.2381 24.3537 27.5213 24.3537C27.6022 24.3537 27.7236 24.3537 27.8045 24.3941L27.9664 23.9491C27.845 23.9086 27.7236 23.9086 27.6427 23.9086ZM21.6551 24.1514C21.4123 23.9895 21.0887 23.9086 20.765 23.9086C20.2391 23.9086 19.875 24.1514 19.875 24.5964C19.875 24.9605 20.1177 25.1628 20.6032 25.2437L20.8459 25.2842C21.0887 25.3246 21.21 25.4055 21.21 25.5269C21.21 25.6887 21.0482 25.7696 20.7246 25.7696C20.4818 25.7696 20.2391 25.6887 19.9963 25.5269L19.7536 25.891C20.0368 26.0933 20.3604 26.1742 20.6841 26.1742C21.291 26.1742 21.6551 25.891 21.6551 25.4864C21.6551 25.0819 21.3719 24.92 20.9268 24.8391L20.6841 24.7987C20.4818 24.7582 20.32 24.7178 20.32 24.5964C20.32 24.4346 20.4818 24.3537 20.7246 24.3537C20.9673 24.3537 21.21 24.4346 21.4123 24.5559L21.6551 24.1514ZM34.0753 23.9086C33.8326 23.9086 33.6303 24.03 33.509 24.2323V23.9895H33.0639V26.1338H33.509V24.92C33.509 24.5559 33.6708 24.3537 33.954 24.3537C34.0349 24.3537 34.1563 24.3537 34.2372 24.3941L34.399 23.9491C34.3181 23.9086 34.1967 23.9086 34.0753 23.9086ZM28.0877 25.0414C28.0473 25.6483 28.5327 26.1338 29.1396 26.1742C29.1801 26.1742 29.2205 26.1742 29.2205 26.1742C29.5037 26.1742 29.7869 26.0933 29.9892 25.9315L29.7465 25.5674C29.5846 25.6887 29.3823 25.7696 29.1801 25.7696C28.8159 25.7292 28.5327 25.4055 28.5327 25.0414C28.5732 24.7178 28.8159 24.4346 29.1801 24.3941C29.3823 24.3941 29.5846 24.475 29.7465 24.5964L29.9892 24.2323C29.7869 24.0705 29.5037 23.9491 29.2205 23.9895C28.6137 23.9491 28.1282 24.3941 28.0877 25.001C28.0877 24.9605 28.0877 25.001 28.0877 25.0414ZM32.4571 25.0414V23.9895H32.012V24.2323C31.8502 24.03 31.6075 23.9086 31.3243 23.9086C30.7174 23.9086 30.1915 24.3941 30.1915 25.0414C30.1915 25.6483 30.677 26.1742 31.3243 26.1742C31.567 26.1742 31.8502 26.0528 32.012 25.8506V26.0933H32.4571V25.0414ZM30.7174 25.0414C30.7579 24.6773 31.0411 24.4346 31.4052 24.4346C31.7693 24.475 32.012 24.7582 32.012 25.1223C32.012 25.446 31.7288 25.7292 31.3647 25.7292C31.0006 25.7292 30.7174 25.446 30.7174 25.0819V25.0414ZM25.1344 23.9086C24.5275 23.9086 24.042 24.4346 24.042 25.0414C24.042 25.6483 24.568 26.1338 25.1748 26.1338C25.4985 26.1338 25.8221 26.0528 26.0649 25.8506L25.8221 25.5269C25.6603 25.6483 25.4176 25.7292 25.2153 25.7696C24.8916 25.8101 24.6084 25.5674 24.568 25.2437H26.1458C26.1458 25.2032 26.1458 25.1223 26.1458 25.0819C26.1458 24.3537 25.7412 23.9086 25.1344 23.9086ZM25.1344 24.3132C25.4176 24.3132 25.6603 24.5559 25.6603 24.8391H24.5275C24.568 24.5559 24.8107 24.3132 25.1344 24.3132ZM36.7455 25.0414V23.0995H36.3005V24.2323C36.1387 24.03 35.8959 23.9086 35.6127 23.9086C35.0059 23.9086 34.4799 24.3941 34.4799 25.0414C34.4799 25.6483 34.9654 26.1742 35.6127 26.1742C35.8555 26.1742 36.1387 26.0528 36.3005 25.8506V26.0933H36.7455V25.0414ZM37.5142 25.8101C37.5546 25.8101 37.5546 25.8101 37.5951 25.8101C37.6356 25.8101 37.6356 25.8506 37.676 25.8506C37.676 25.8506 37.7165 25.891 37.7165 25.9315C37.7569 25.9719 37.7569 26.0528 37.7165 26.0933C37.7165 26.1338 37.676 26.1338 37.676 26.1742C37.676 26.1742 37.6356 26.2147 37.5951 26.2147C37.5546 26.2147 37.5546 26.2147 37.5142 26.2147C37.4333 26.2147 37.3524 26.1742 37.3119 26.0933C37.2714 26.0528 37.2714 25.9719 37.3119 25.9315C37.3119 25.891 37.3524 25.891 37.3524 25.8506C37.3524 25.8506 37.3928 25.8101 37.4333 25.8101C37.4737 25.8101 37.5142 25.8101 37.5142 25.8101ZM37.5142 26.1742C37.5546 26.1742 37.5546 26.1742 37.5951 26.1742L37.6356 26.1338C37.676 26.0528 37.676 25.9719 37.6356 25.891L37.5951 25.8506C37.5546 25.8506 37.5546 25.8506 37.5142 25.8506C37.4737 25.8506 37.4737 25.8506 37.4333 25.8506L37.3928 25.891C37.3524 25.9719 37.3524 26.0528 37.3928 26.1338L37.4333 26.1742C37.4737 26.1742 37.5142 26.1742 37.5142 26.1742ZM37.5546 25.891C37.5951 25.891 37.5951 25.891 37.5951 25.891C37.5951 25.891 37.6356 25.9315 37.5951 25.9315V25.9719H37.5546L37.6356 26.0528H37.5951L37.5546 25.9719V26.0528H37.4333V25.8506L37.5546 25.891ZM37.4737 25.9315V25.9719H37.5142C37.5142 25.9719 37.5142 25.9719 37.5546 25.9719C37.5546 25.9719 37.5546 25.9719 37.5142 25.9719L37.4737 25.9315ZM35.0463 25.0414C35.0868 24.6773 35.37 24.4346 35.7341 24.4346C36.0982 24.475 36.3409 24.7582 36.3409 25.1223C36.3409 25.446 36.0577 25.7292 35.6936 25.7292C35.3295 25.7292 35.0463 25.446 35.0463 25.0819V25.0414ZM19.349 25.0414V23.9895H18.904V24.2323C18.7422 24.03 18.4994 23.9086 18.2162 23.9086C17.6094 23.9086 17.0834 24.3941 17.0834 25.0414C17.0834 25.6483 17.5689 26.1742 18.2162 26.1742C18.459 26.1742 18.7422 26.0528 18.904 25.8506V26.0933H19.349V25.0414ZM17.6498 25.0414C17.6903 24.6773 17.9735 24.4346 18.3376 24.4346C18.7017 24.475 18.9445 24.7582 18.9445 25.1223C18.9445 25.446 18.6613 25.7292 18.2971 25.7292C17.933 25.7292 17.6498 25.446 17.6498 25.0819C17.6094 25.0819 17.6094 25.0414 17.6498 25.0414Z" fill="#231F20"/>
<path d="M28.5327 7.68506H21.4932V20.3076H28.5327V7.68506Z" fill="#FF5F00"/>
<path d="M21.9381 14.0366C21.9381 11.5688 23.0709 9.22227 25.0129 7.72537C21.5336 4.97429 16.4764 5.58115 13.7254 9.06044C10.9743 12.5397 11.5811 17.5969 15.0604 20.3479C17.9733 22.654 22.0595 22.654 24.9724 20.3479C23.0709 18.8106 21.9381 16.5045 21.9381 14.0366Z" fill="#EB001B"/>
<path d="M37.9998 14.0371C37.9998 18.4873 34.3991 22.088 29.9489 22.088C28.1283 22.088 26.3886 21.4812 24.9727 20.3888C28.452 17.6377 29.0588 12.5806 26.3077 9.10133C25.9032 8.61585 25.4581 8.13037 24.9727 7.76625C28.4924 4.97473 33.5495 5.58158 36.3006 9.06088C37.3929 10.4769 37.9998 12.2165 37.9998 14.0371Z" fill="#F79E1B"/>
<path d="M37.2321 19.0131V18.7704H37.3535V18.7299H37.0703V18.7704H37.1917V19.0131H37.2321ZM37.7581 19.0131V18.6895H37.6772L37.5963 18.9322L37.5153 18.6895H37.4344V19.0131H37.4749V18.7704L37.5558 18.9727H37.5963L37.6772 18.7704V19.0131H37.7581Z" fill="#F79E1B"/>
</svg>
