<svg width="141" height="40" viewBox="0 0 141 40" fill="none" xmlns="http://www.w3.org/2000/svg">
<path d="M54.5559 7.39571C53.9467 7.29746 53.4457 7.15009 53.0527 6.9536V6.52623H60.8043V6.9536C60.4604 7.13044 60.0576 7.25325 59.5959 7.32202V16.061C60.0576 16.1396 60.4604 16.2575 60.8043 16.4147V16.842H57.0611V16.4147C57.238 16.3361 57.4197 16.2722 57.6064 16.2231C57.793 16.1641 57.9846 16.1101 58.1811 16.061V7.29255H55.4253C55.386 8.83501 55.3123 10.1171 55.2043 11.1389C55.106 12.1508 54.9783 12.9908 54.8211 13.6589C54.6639 14.3171 54.4822 14.8427 54.2759 15.2357C54.0794 15.6287 53.8632 15.9775 53.6274 16.282C53.4309 16.5375 53.1902 16.7241 52.9053 16.842C52.6204 16.9599 52.3453 17.0189 52.0801 17.0189C52.0113 16.9403 51.9376 16.8322 51.859 16.6947C51.7902 16.5473 51.7215 16.395 51.6527 16.2378C51.5937 16.0708 51.5446 15.9087 51.5053 15.7515C51.466 15.5845 51.4415 15.4371 51.4316 15.3094L51.6527 14.941L53.3474 15.2504C53.4948 15.0048 53.6373 14.6806 53.7748 14.2778C53.9222 13.875 54.0499 13.3641 54.158 12.7452C54.2759 12.1164 54.3692 11.3648 54.438 10.4904C54.5166 9.61606 54.5559 8.58448 54.5559 7.39571Z" fill="black"/>
<path d="M67.2778 14.9115C67.2778 15.1276 67.2827 15.3143 67.2925 15.4715C67.3023 15.6287 67.3122 15.7957 67.322 15.9725L68.3388 16.1199V16.4294C68.0932 16.5571 67.8181 16.6701 67.5136 16.7683C67.2188 16.8666 66.9339 16.9403 66.6588 16.9894H66.2904C66.1922 16.7634 66.1332 16.5178 66.1136 16.2526C66.0939 15.9775 66.0792 15.6778 66.0694 15.3536H65.9957C65.9564 15.5501 65.8778 15.7515 65.7599 15.9578C65.6518 16.1543 65.5044 16.3311 65.3178 16.4883C65.1409 16.6455 64.9297 16.7733 64.6841 16.8715C64.4385 16.9697 64.1585 17.0189 63.8441 17.0189C63.2448 17.0189 62.7536 16.8371 62.3704 16.4736C61.9971 16.1101 61.8104 15.6336 61.8104 15.0441C61.8104 14.5922 61.8988 14.2238 62.0757 13.9389C62.2623 13.6441 62.5325 13.4133 62.8862 13.2462C63.2399 13.0792 63.6771 12.9613 64.1978 12.8925C64.7185 12.814 65.3227 12.755 66.0104 12.7157C66.0497 12.2933 66.0595 11.915 66.0399 11.581C66.0301 11.2371 65.976 10.9473 65.8778 10.7115C65.7894 10.4659 65.6518 10.2792 65.4651 10.1515C65.2883 10.014 65.0525 9.94518 64.7578 9.94518C64.6202 9.94518 64.463 9.95501 64.2862 9.97465C64.1192 9.98448 63.9522 10.0238 63.7851 10.0925L63.0925 11.861H62.7094C62.6111 11.5662 62.5227 11.2617 62.4441 10.9473C62.3753 10.6329 62.3311 10.3234 62.3115 10.0189C62.6848 9.7929 63.0974 9.61606 63.5494 9.48834C64.0111 9.36062 64.522 9.29676 65.082 9.29676C65.583 9.29676 65.9809 9.37044 66.2757 9.51781C66.5802 9.65536 66.8111 9.83711 66.9683 10.0631C67.1255 10.289 67.2287 10.5396 67.2778 10.8147C67.3269 11.0897 67.3515 11.3648 67.3515 11.6399C67.3515 12.2294 67.3367 12.7992 67.3073 13.3494C67.2876 13.8897 67.2778 14.4104 67.2778 14.9115ZM64.4336 16.1052C64.6792 16.1052 64.8953 16.0561 65.082 15.9578C65.2687 15.8596 65.4258 15.7417 65.5536 15.6041C65.6813 15.4666 65.7844 15.329 65.863 15.1915C65.9416 15.0441 65.9957 14.9213 66.0251 14.8231V13.2757C65.4553 13.2757 64.9887 13.3052 64.6251 13.3641C64.2616 13.4231 63.9767 13.5164 63.7704 13.6441C63.5641 13.7718 63.4216 13.934 63.343 14.1304C63.2644 14.3171 63.2251 14.5333 63.2251 14.7789C63.2251 15.2013 63.3332 15.5304 63.5494 15.7662C63.7655 15.9922 64.0602 16.1052 64.4336 16.1052Z" fill="black"/>
<path d="M69.2803 12.981C69.2803 11.7234 69.3834 10.6722 69.5897 9.82729C69.796 8.97255 70.1055 8.28974 70.5182 7.77886C70.9406 7.25816 71.4711 6.88974 72.1097 6.6736C72.7483 6.45746 73.495 6.34939 74.3497 6.34939L75.3076 5.61255H75.6908C75.681 5.78939 75.6613 5.98097 75.6318 6.18729C75.6024 6.38378 75.5631 6.57536 75.5139 6.76202C75.4746 6.93886 75.4304 7.09606 75.3813 7.2336C75.342 7.37115 75.3076 7.46939 75.2782 7.52834C74.3743 7.52834 73.608 7.57255 72.9792 7.66097C72.3504 7.74939 71.8297 7.93115 71.4171 8.20623C71.0045 8.48132 70.6901 8.87922 70.4739 9.39992C70.2676 9.92062 70.1301 10.6083 70.0613 11.4631H70.135C70.2529 11.2076 70.4101 10.962 70.6066 10.7262C70.8129 10.4904 71.0438 10.2841 71.2992 10.1073C71.5645 9.93044 71.8445 9.78799 72.1392 9.67992C72.4339 9.57185 72.7336 9.51781 73.0382 9.51781C75.0424 9.51781 76.0445 10.7213 76.0445 13.1283C76.0445 13.6982 75.9659 14.2238 75.8087 14.7052C75.6515 15.1768 75.4206 15.5845 75.116 15.9283C74.8115 16.2722 74.4431 16.5424 74.0108 16.7389C73.5785 16.9255 73.0922 17.0189 72.5518 17.0189C72.0606 17.0189 71.6136 16.9304 71.2108 16.7536C70.808 16.5669 70.4641 16.3017 70.1792 15.9578C69.8943 15.6041 69.6732 15.1817 69.516 14.6904C69.3589 14.1894 69.2803 13.6196 69.2803 12.981ZM70.6655 12.981C70.6655 13.5999 70.7196 14.1255 70.8276 14.5578C70.9455 14.9803 71.1027 15.329 71.2992 15.6041C71.4957 15.8694 71.7217 16.0659 71.9771 16.1936C72.2424 16.3115 72.5175 16.3704 72.8024 16.3704C73.3918 16.3704 73.8339 16.1052 74.1287 15.5747C74.4332 15.0441 74.5855 14.2876 74.5855 13.3052C74.5855 12.3031 74.3939 11.5711 74.0108 11.1094C73.6276 10.6476 73.0971 10.4168 72.4192 10.4168C72.1638 10.4168 71.8838 10.4954 71.5792 10.6525C71.2845 10.8097 71.0339 11.021 70.8276 11.2862C70.7785 11.5318 70.7392 11.7922 70.7097 12.0673C70.6803 12.3325 70.6655 12.6371 70.6655 12.981Z" fill="black"/>
<path d="M77.2531 13.1578C77.2531 12.5389 77.3317 11.9936 77.4889 11.522C77.6559 11.0406 77.8917 10.6378 78.1963 10.3136C78.5008 9.97957 78.8643 9.72904 79.2868 9.56202C79.7191 9.38518 80.1956 9.29676 80.7163 9.29676C81.3254 9.29676 81.851 9.39009 82.2931 9.57676C82.7352 9.76343 83.0938 10.0287 83.3689 10.3725C83.6538 10.7066 83.8601 11.1094 83.9879 11.581C84.1254 12.0525 84.1942 12.5782 84.1942 13.1578C84.1942 14.3957 83.8798 15.3487 83.251 16.0168C82.6222 16.6848 81.7773 17.0189 80.7163 17.0189C80.1268 17.0189 79.6159 16.9304 79.1836 16.7536C78.7514 16.5669 78.3928 16.3066 78.1079 15.9725C77.8229 15.6287 77.6068 15.221 77.4594 14.7494C77.3219 14.268 77.2531 13.7375 77.2531 13.1578ZM78.6679 13.1578C78.6679 13.5999 78.7072 14.0175 78.7858 14.4104C78.8742 14.8034 79.0068 15.1473 79.1836 15.442C79.3703 15.7269 79.611 15.9529 79.9058 16.1199C80.2005 16.2869 80.5542 16.3704 80.9668 16.3704C81.4973 16.3704 81.9296 16.1101 82.2636 15.5894C82.6075 15.0687 82.7794 14.2582 82.7794 13.1578C82.7794 12.7059 82.7352 12.2883 82.6468 11.9052C82.5682 11.5122 82.4405 11.1733 82.2636 10.8883C82.0868 10.5936 81.8608 10.3627 81.5858 10.1957C81.3107 10.0287 80.9815 9.94518 80.5984 9.94518C80.0187 9.94518 79.5521 10.2055 79.1984 10.7262C78.8447 11.2469 78.6679 12.0575 78.6679 13.1578Z" fill="black"/>
<path d="M88.5229 19.7894H85.2513V19.421C85.5854 19.2638 85.9096 19.1459 86.2239 19.0673V10.3283L85.2513 10.2104V9.82729C85.5657 9.68974 85.885 9.58167 86.2092 9.50308C86.5432 9.41465 86.8675 9.34588 87.1818 9.29676H87.5503V10.9473H87.565C87.7615 10.4462 88.0366 10.0483 88.3903 9.7536C88.7439 9.44904 89.2057 9.29676 89.7755 9.29676C90.6499 9.29676 91.3278 9.58658 91.8092 10.1662C92.2906 10.7459 92.5313 11.689 92.5313 12.9957C92.5313 13.6147 92.4478 14.1747 92.2808 14.6757C92.1236 15.1768 91.8927 15.5992 91.5882 15.9431C91.2934 16.2869 90.9299 16.5522 90.4976 16.7389C90.0752 16.9255 89.6036 17.0189 89.0829 17.0189C88.7194 17.0189 88.4345 16.9943 88.2282 16.9452C88.0218 16.9059 87.7959 16.8322 87.5503 16.7241V19.0673C87.7075 19.0869 87.8646 19.1213 88.0218 19.1704C88.179 19.2294 88.3461 19.3129 88.5229 19.421V19.7894ZM89.3039 10.2104C88.8225 10.2104 88.4394 10.3627 88.1545 10.6673C87.8696 10.9718 87.6682 11.3894 87.5503 11.9199V16.0462C87.7271 16.1543 87.9236 16.2378 88.1397 16.2968C88.3657 16.3459 88.6555 16.3704 89.0092 16.3704C89.3334 16.3704 89.6232 16.2869 89.8787 16.1199C90.1439 15.9529 90.365 15.7171 90.5418 15.4125C90.7285 15.108 90.871 14.7543 90.9692 14.3515C91.0675 13.9389 91.1166 13.4869 91.1166 12.9957C91.1166 12.5929 91.0822 12.2245 91.0134 11.8904C90.9545 11.5466 90.8513 11.2518 90.7039 11.0062C90.5664 10.7508 90.3797 10.5543 90.1439 10.4168C89.918 10.2792 89.638 10.2104 89.3039 10.2104Z" fill="black"/>
<path d="M99.1836 14.9115C99.1836 15.1276 99.1885 15.3143 99.1984 15.4715C99.2082 15.6287 99.218 15.7957 99.2278 15.9725L100.245 16.1199V16.4294C99.9991 16.5571 99.724 16.6701 99.4194 16.7683C99.1247 16.8666 98.8398 16.9403 98.5647 16.9894H98.1962C98.098 16.7634 98.0391 16.5178 98.0194 16.2526C97.9998 15.9775 97.985 15.6778 97.9752 15.3536H97.9015C97.8622 15.5501 97.7836 15.7515 97.6657 15.9578C97.5577 16.1543 97.4103 16.3311 97.2236 16.4883C97.0468 16.6455 96.8355 16.7733 96.5899 16.8715C96.3443 16.9697 96.0643 17.0189 95.7499 17.0189C95.1506 17.0189 94.6594 16.8371 94.2762 16.4736C93.9029 16.1101 93.7162 15.6336 93.7162 15.0441C93.7162 14.5922 93.8047 14.2238 93.9815 13.9389C94.1682 13.6441 94.4384 13.4133 94.792 13.2462C95.1457 13.0792 95.5829 12.9613 96.1036 12.8925C96.6243 12.814 97.2285 12.755 97.9162 12.7157C97.9555 12.2933 97.9654 11.915 97.9457 11.581C97.9359 11.2371 97.8819 10.9473 97.7836 10.7115C97.6952 10.4659 97.5577 10.2792 97.371 10.1515C97.1941 10.014 96.9584 9.94518 96.6636 9.94518C96.5261 9.94518 96.3689 9.95501 96.192 9.97465C96.025 9.98448 95.858 10.0238 95.691 10.0925L94.9984 11.861H94.6152C94.5169 11.5662 94.4285 11.2617 94.3499 10.9473C94.2812 10.6329 94.2369 10.3234 94.2173 10.0189C94.5906 9.7929 95.0033 9.61606 95.4552 9.48834C95.917 9.36062 96.4278 9.29676 96.9878 9.29676C97.4889 9.29676 97.8868 9.37044 98.1815 9.51781C98.4861 9.65536 98.7169 9.83711 98.8741 10.0631C99.0313 10.289 99.1345 10.5396 99.1836 10.8147C99.2327 11.0897 99.2573 11.3648 99.2573 11.6399C99.2573 12.2294 99.2426 12.7992 99.2131 13.3494C99.1934 13.8897 99.1836 14.4104 99.1836 14.9115ZM96.3394 16.1052C96.585 16.1052 96.8012 16.0561 96.9878 15.9578C97.1745 15.8596 97.3317 15.7417 97.4594 15.6041C97.5871 15.4666 97.6903 15.329 97.7689 15.1915C97.8475 15.0441 97.9015 14.9213 97.931 14.8231V13.2757C97.3612 13.2757 96.8945 13.3052 96.531 13.3641C96.1675 13.4231 95.8826 13.5164 95.6762 13.6441C95.4699 13.7718 95.3275 13.934 95.2489 14.1304C95.1703 14.3171 95.131 14.5333 95.131 14.7789C95.131 15.2013 95.2391 15.5304 95.4552 15.7662C95.6713 15.9922 95.9661 16.1052 96.3394 16.1052Z" fill="black"/>
<path d="M105.872 16.842H102.601V16.4736C102.905 16.3164 103.23 16.1985 103.573 16.1199V10.122H102.203L101.555 11.8904H101.171C101.122 11.468 101.083 11.0554 101.053 10.6525C101.024 10.2399 101.004 9.84694 100.995 9.4736H107.479C107.469 9.82729 107.449 10.2154 107.42 10.6378C107.4 11.0504 107.361 11.468 107.302 11.8904H106.919L106.27 10.122H104.9V16.1199C105.362 16.2378 105.686 16.3557 105.872 16.4736V16.842Z" fill="black"/>
<path d="M108.497 13.1578C108.497 12.5389 108.576 11.9936 108.733 11.522C108.9 11.0406 109.136 10.6378 109.44 10.3136C109.745 9.97957 110.108 9.72904 110.531 9.56202C110.963 9.38518 111.439 9.29676 111.96 9.29676C112.569 9.29676 113.095 9.39009 113.537 9.57676C113.979 9.76343 114.338 10.0287 114.613 10.3725C114.898 10.7066 115.104 11.1094 115.232 11.581C115.369 12.0525 115.438 12.5782 115.438 13.1578C115.438 14.3957 115.124 15.3487 114.495 16.0168C113.866 16.6848 113.021 17.0189 111.96 17.0189C111.371 17.0189 110.86 16.9304 110.427 16.7536C109.995 16.5669 109.637 16.3066 109.352 15.9725C109.067 15.6287 108.851 15.221 108.703 14.7494C108.566 14.268 108.497 13.7375 108.497 13.1578ZM109.912 13.1578C109.912 13.5999 109.951 14.0175 110.03 14.4104C110.118 14.8034 110.251 15.1473 110.427 15.442C110.614 15.7269 110.855 15.9529 111.15 16.1199C111.444 16.2869 111.798 16.3704 112.211 16.3704C112.741 16.3704 113.173 16.1101 113.507 15.5894C113.851 15.0687 114.023 14.2582 114.023 13.1578C114.023 12.7059 113.979 12.2883 113.891 11.9052C113.812 11.5122 113.684 11.1733 113.507 10.8883C113.331 10.5936 113.105 10.3627 112.83 10.1957C112.555 10.0287 112.225 9.94518 111.842 9.94518C111.263 9.94518 110.796 10.2055 110.442 10.7262C110.089 11.2469 109.912 12.0575 109.912 13.1578Z" fill="black"/>
<path d="M119.767 19.7894H116.495V19.421C116.829 19.2638 117.153 19.1459 117.468 19.0673V10.3283L116.495 10.2104V9.82729C116.81 9.68974 117.129 9.58167 117.453 9.50308C117.787 9.41465 118.111 9.34588 118.426 9.29676H118.794V10.9473H118.809C119.005 10.4462 119.28 10.0483 119.634 9.7536C119.988 9.44904 120.45 9.29676 121.019 9.29676C121.894 9.29676 122.572 9.58658 123.053 10.1662C123.534 10.7459 123.775 11.689 123.775 12.9957C123.775 13.6147 123.692 14.1747 123.525 14.6757C123.367 15.1768 123.137 15.5992 122.832 15.9431C122.537 16.2869 122.174 16.5522 121.741 16.7389C121.319 16.9255 120.847 17.0189 120.327 17.0189C119.963 17.0189 119.678 16.9943 119.472 16.9452C119.266 16.9059 119.04 16.8322 118.794 16.7241V19.0673C118.951 19.0869 119.108 19.1213 119.266 19.1704C119.423 19.2294 119.59 19.3129 119.767 19.421V19.7894ZM120.548 10.2104C120.066 10.2104 119.683 10.3627 119.398 10.6673C119.113 10.9718 118.912 11.3894 118.794 11.9199V16.0462C118.971 16.1543 119.167 16.2378 119.384 16.2968C119.61 16.3459 119.899 16.3704 120.253 16.3704C120.577 16.3704 120.867 16.2869 121.123 16.1199C121.388 15.9529 121.609 15.7171 121.786 15.4125C121.972 15.108 122.115 14.7543 122.213 14.3515C122.311 13.9389 122.36 13.4869 122.36 12.9957C122.36 12.5929 122.326 12.2245 122.257 11.8904C122.198 11.5466 122.095 11.2518 121.948 11.0062C121.81 10.7508 121.624 10.5543 121.388 10.4168C121.162 10.2792 120.882 10.2104 120.548 10.2104Z" fill="black"/>
<path d="M124.96 9.4736H128.084V9.85676C127.976 9.91571 127.849 9.97465 127.701 10.0336C127.564 10.0925 127.397 10.1515 127.2 10.2104V14.2483L127.038 15.6189H127.112L127.686 14.5136L130.84 9.4736H132.83V9.85676C132.515 10.0336 132.191 10.1515 131.857 10.2104V16.1199C132.044 16.169 132.22 16.2231 132.387 16.282C132.554 16.3311 132.702 16.395 132.83 16.4736V16.842H129.705V16.4736C129.98 16.3164 130.275 16.1985 130.59 16.1199V11.9052L130.737 10.741H130.663L130.103 11.8462L126.979 16.842H124.96V16.4736C125.127 16.395 125.289 16.3311 125.446 16.282C125.604 16.2231 125.766 16.169 125.933 16.1199V10.2104C125.55 10.1515 125.225 10.0336 124.96 9.85676V9.4736Z" fill="black"/>
<path d="M134.352 11.6399C134.352 11.3059 134.406 11.0013 134.514 10.7262C134.622 10.4511 134.789 10.2154 135.015 10.0189C135.251 9.82237 135.546 9.67009 135.899 9.56202C136.263 9.44413 136.7 9.38518 137.211 9.38518C137.329 9.38518 137.491 9.39009 137.697 9.39992C137.913 9.40974 138.139 9.41957 138.375 9.42939C138.611 9.43922 138.837 9.44904 139.053 9.45886C139.279 9.46869 139.456 9.4736 139.584 9.4736H140.645V9.85676C140.566 9.92553 140.453 9.98939 140.306 10.0483C140.168 10.1073 139.957 10.1613 139.672 10.2104V16.1199C140.035 16.228 140.36 16.3459 140.645 16.4736V16.842H137.476V16.4736C137.604 16.395 137.737 16.3311 137.874 16.282C138.021 16.2231 138.179 16.169 138.346 16.1199V13.6294L137.27 13.7768C137.064 14.1206 136.833 14.5382 136.577 15.0294C136.322 15.5108 135.973 16.002 135.531 16.5031L135.074 16.842H133.409V16.4736L134.234 16.1199C134.676 15.6582 135.049 15.2013 135.354 14.7494C135.659 14.2975 135.934 13.9143 136.179 13.5999C135.953 13.5606 135.732 13.4968 135.516 13.4083C135.3 13.3101 135.104 13.1824 134.927 13.0252C134.76 12.8582 134.622 12.6617 134.514 12.4357C134.406 12.2097 134.352 11.9445 134.352 11.6399ZM138.346 10.122C138.218 10.1024 138.051 10.0827 137.845 10.0631C137.648 10.0434 137.481 10.0336 137.344 10.0336C136.734 10.0238 136.312 10.1662 136.076 10.461C135.85 10.7459 135.737 11.1241 135.737 11.5957C135.737 12.0771 135.914 12.475 136.268 12.7894C136.631 13.094 137.191 13.2462 137.948 13.2462H138.346V10.122Z" fill="black"/>
<path d="M52.1537 26.3157H55.278V26.6989C55.1699 26.7578 55.0422 26.8168 54.8948 26.8757C54.7573 26.9347 54.5902 26.9936 54.3937 27.0525V31.0904L54.2316 32.461H54.3053L54.8801 31.3557L58.0337 26.3157H60.0232V26.6989C59.7088 26.8757 59.3846 26.9936 59.0506 27.0525V32.962C59.2373 33.0111 59.4141 33.0652 59.5811 33.1241C59.7481 33.1733 59.8955 33.2371 60.0232 33.3157V33.6841H56.899V33.3157C57.1741 33.1585 57.4688 33.0406 57.7832 32.962V28.7473L57.9306 27.5831H57.8569L57.2969 28.6883L54.1727 33.6841H52.1537V33.3157C52.3208 33.2371 52.4829 33.1733 52.6401 33.1241C52.7973 33.0652 52.9594 33.0111 53.1264 32.962V27.0525C52.7432 26.9936 52.419 26.8757 52.1537 26.6989V26.3157Z" fill="black"/>
<path d="M64.3456 33.6841H61.1772V33.3157C61.3147 33.2371 61.467 33.1733 61.634 33.1241C61.801 33.0652 61.973 33.0111 62.1498 32.962V27.0525C61.973 27.0034 61.801 26.9543 61.634 26.9052C61.467 26.8462 61.3147 26.7775 61.1772 26.6989V26.3157H64.3456V26.6989C64.1196 26.8364 63.8298 26.9543 63.4761 27.0525V29.6315H66.7477V27.0525C66.4039 26.9936 66.1091 26.8757 65.8635 26.6989V26.3157H69.0467V26.6989C68.7814 26.8659 68.4572 26.9838 68.074 27.0525V32.962C68.2509 33.0013 68.4228 33.0455 68.5898 33.0947C68.7568 33.1438 68.9091 33.2175 69.0467 33.3157V33.6841H65.8635V33.3157C66.1091 33.1389 66.4039 33.021 66.7477 32.962V30.2799H63.4761V32.962C63.6726 33.0013 63.8396 33.0504 63.9772 33.1094C64.1147 33.1683 64.2375 33.2371 64.3456 33.3157V33.6841Z" fill="black"/>
<path d="M74.9164 33.6841H71.6448V33.3157C71.9494 33.1585 72.2736 33.0406 72.6175 32.962V26.9641H71.2469L70.5985 28.7325H70.2154C70.1662 28.3101 70.1269 27.8975 70.0975 27.4947C70.068 27.082 70.0483 26.689 70.0385 26.3157H76.5227C76.5129 26.6694 76.4933 27.0575 76.4638 27.4799C76.4441 27.8925 76.4048 28.3101 76.3459 28.7325H75.9627L75.3143 26.9641H73.9438V32.962C74.4055 33.0799 74.7297 33.1978 74.9164 33.3157V33.6841Z" fill="black"/>
<path d="M83.5094 32.6525C83.4308 32.8196 83.308 32.9768 83.141 33.1241C82.9739 33.2715 82.7824 33.3992 82.5662 33.5073C82.3501 33.6154 82.1143 33.6989 81.8588 33.7578C81.6034 33.8266 81.3431 33.861 81.0778 33.861C80.4981 33.861 79.9873 33.7725 79.5452 33.5957C79.1031 33.409 78.7346 33.1487 78.4399 32.8147C78.1452 32.4708 77.9192 32.0631 77.762 31.5915C77.6146 31.1199 77.541 30.5894 77.541 29.9999C77.541 28.7424 77.8308 27.7845 78.4104 27.1262C78.9901 26.468 79.8104 26.1389 80.8715 26.1389C81.2153 26.1389 81.5543 26.188 81.8883 26.2862C82.2224 26.3747 82.5171 26.5269 82.7725 26.7431C83.0378 26.9592 83.249 27.249 83.4062 27.6125C83.5732 27.9662 83.6567 28.4083 83.6567 28.9389C83.6567 29.1059 83.6469 29.2778 83.6273 29.4547C83.6174 29.6217 83.5929 29.8034 83.5536 29.9999H78.9557C78.9557 30.4125 79.0048 30.8006 79.1031 31.1641C79.2111 31.5178 79.3683 31.8273 79.5746 32.0926C79.781 32.3578 80.0413 32.569 80.3557 32.7262C80.6701 32.8736 81.0385 32.9473 81.461 32.9473C81.8048 32.9473 82.1536 32.8982 82.5073 32.7999C82.861 32.7017 83.1262 32.574 83.3031 32.4168L83.5094 32.6525ZM80.8125 26.7873C80.2525 26.7873 79.8252 26.9789 79.5304 27.362C79.2357 27.7354 79.0588 28.3985 78.9999 29.3515H82.242C82.2518 29.2631 82.2567 29.1796 82.2567 29.101C82.2666 29.0125 82.2715 28.929 82.2715 28.8504C82.2715 28.2217 82.1536 27.7206 81.9178 27.3473C81.682 26.974 81.3136 26.7873 80.8125 26.7873Z" fill="black"/>
<path d="M88.0768 36.6315H84.8052V36.2631C85.1392 36.1059 85.4634 35.988 85.7778 35.9094V27.1704L84.8052 27.0525V26.6694C85.1196 26.5318 85.4389 26.4238 85.7631 26.3452C86.0971 26.2568 86.4213 26.188 86.7357 26.1389H87.1041V27.7894H87.1189C87.3154 27.2883 87.5904 26.8904 87.9441 26.5957C88.2978 26.2911 88.7596 26.1389 89.3294 26.1389C90.2038 26.1389 90.8817 26.4287 91.3631 27.0083C91.8445 27.588 92.0852 28.5311 92.0852 29.8378C92.0852 30.4568 92.0017 31.0168 91.8347 31.5178C91.6775 32.0189 91.4466 32.4413 91.142 32.7852C90.8473 33.129 90.4838 33.3943 90.0515 33.581C89.629 33.7676 89.1575 33.861 88.6368 33.861C88.2733 33.861 87.9883 33.8364 87.782 33.7873C87.5757 33.748 87.3497 33.6743 87.1041 33.5662V35.9094C87.2613 35.929 87.4185 35.9634 87.5757 36.0126C87.7329 36.0715 87.8999 36.155 88.0768 36.2631V36.6315ZM88.8578 27.0525C88.3764 27.0525 87.9932 27.2048 87.7083 27.5094C87.4234 27.814 87.222 28.2315 87.1041 28.762V32.8883C87.281 32.9964 87.4775 33.0799 87.6936 33.1389C87.9196 33.188 88.2094 33.2126 88.5631 33.2126C88.8873 33.2126 89.1771 33.129 89.4325 32.962C89.6978 32.795 89.9189 32.5592 90.0957 32.2547C90.2824 31.9501 90.4248 31.5964 90.5231 31.1936C90.6213 30.781 90.6704 30.329 90.6704 29.8378C90.6704 29.435 90.6361 29.0666 90.5673 28.7325C90.5083 28.3887 90.4052 28.094 90.2578 27.8483C90.1203 27.5929 89.9336 27.3964 89.6978 27.2589C89.4718 27.1213 89.1918 27.0525 88.8578 27.0525Z" fill="black"/>
<path d="M96.4385 33.6841H93.2701V33.3157C93.4077 33.2371 93.5599 33.1733 93.727 33.1241C93.894 33.0652 94.0659 33.0111 94.2427 32.962V27.0525C94.0659 27.0034 93.894 26.9543 93.727 26.9052C93.5599 26.8462 93.4077 26.7775 93.2701 26.6989V26.3157H96.4385V26.6989C96.2126 26.8364 95.9227 26.9543 95.5691 27.0525V29.6315H98.8406V27.0525C98.4968 26.9936 98.202 26.8757 97.9564 26.6989V26.3157H101.14V26.6989C100.874 26.8659 100.55 26.9838 100.167 27.0525V32.962C100.344 33.0013 100.516 33.0455 100.683 33.0947C100.85 33.1438 101.002 33.2175 101.14 33.3157V33.6841H97.9564V33.3157C98.202 33.1389 98.4968 33.021 98.8406 32.962V30.2799H95.5691V32.962C95.7655 33.0013 95.9326 33.0504 96.0701 33.1094C96.2077 33.1683 96.3305 33.2371 96.4385 33.3157V33.6841Z" fill="black"/>
<path d="M108.291 32.6525C108.213 32.8196 108.09 32.9768 107.923 33.1241C107.756 33.2715 107.564 33.3992 107.348 33.5073C107.132 33.6154 106.896 33.6989 106.641 33.7578C106.385 33.8266 106.125 33.861 105.86 33.861C105.28 33.861 104.769 33.7725 104.327 33.5957C103.885 33.409 103.517 33.1487 103.222 32.8147C102.927 32.4708 102.701 32.0631 102.544 31.5915C102.397 31.1199 102.323 30.5894 102.323 29.9999C102.323 28.7424 102.613 27.7845 103.192 27.1262C103.772 26.468 104.592 26.1389 105.654 26.1389C105.997 26.1389 106.336 26.188 106.67 26.2862C107.004 26.3747 107.299 26.5269 107.555 26.7431C107.82 26.9592 108.031 27.249 108.188 27.6125C108.355 27.9662 108.439 28.4083 108.439 28.9389C108.439 29.1059 108.429 29.2778 108.409 29.4547C108.4 29.6217 108.375 29.8034 108.336 29.9999H103.738C103.738 30.4125 103.787 30.8006 103.885 31.1641C103.993 31.5178 104.15 31.8273 104.357 32.0926C104.563 32.3578 104.823 32.569 105.138 32.7262C105.452 32.8736 105.821 32.9473 106.243 32.9473C106.587 32.9473 106.936 32.8982 107.289 32.7999C107.643 32.7017 107.908 32.574 108.085 32.4168L108.291 32.6525ZM105.595 26.7873C105.035 26.7873 104.607 26.9789 104.312 27.362C104.018 27.7354 103.841 28.3985 103.782 29.3515H107.024C107.034 29.2631 107.039 29.1796 107.039 29.101C107.049 29.0125 107.054 28.929 107.054 28.8504C107.054 28.2217 106.936 27.7206 106.7 27.3473C106.464 26.974 106.096 26.7873 105.595 26.7873Z" fill="black"/>
<path d="M114.421 33.6841H111.149V33.3157C111.454 33.1585 111.778 33.0406 112.122 32.962V26.9641H110.751L110.103 28.7325H109.72C109.671 28.3101 109.631 27.8975 109.602 27.4947C109.573 27.082 109.553 26.689 109.543 26.3157H116.027C116.017 26.6694 115.998 27.0575 115.968 27.4799C115.949 27.8925 115.909 28.3101 115.85 28.7325H115.467L114.819 26.9641H113.448V32.962C113.91 33.0799 114.234 33.1978 114.421 33.3157V33.6841Z" fill="black"/>
<path d="M38.4296 28.8547C37.4572 27.8822 36.1116 27.2793 34.6261 27.2793C34.302 27.2793 33.9857 27.3095 33.6792 27.3681C33.0548 27.4841 32.4684 27.7091 31.9314 28.0107C26.1071 31.2853 21.7649 31.6551 20.0284 31.6551C20.0093 31.6551 19.9919 31.6551 19.9744 31.6551C18.5379 31.6551 15.3037 31.3753 10.9427 29.4388C10.8975 29.8666 10.8605 30.3103 10.8279 30.7619C10.7889 31.3671 10.7524 31.9774 10.7453 32.6355C10.7357 33.5508 10.5244 34.479 10.032 35.3311C9.64906 35.9926 9.14701 36.543 8.5687 36.9698C8.35362 37.1276 8.11471 37.2413 7.88086 37.3646C7.94113 37.3334 8.01074 37.3187 8.06982 37.2857C13.8941 34.0111 18.2364 33.6397 19.9744 33.6397C19.9919 33.6397 20.0093 33.6397 20.0284 33.6397C21.7649 33.6397 26.1071 34.0111 31.9314 37.2857C32.4684 37.587 33.0548 37.8123 33.6792 37.9281C33.9857 37.9852 34.302 38.0154 34.6261 38.0154C36.1116 38.0154 37.4572 37.4142 38.4296 36.4414C39.4003 35.469 40.0009 34.1284 40.0009 32.6465C40.0009 31.1664 39.4003 29.8258 38.4296 28.8547Z" fill="#1BB7E0"/>
<path opacity="0.35" d="M38.4296 28.8547C37.4572 27.8822 36.1116 27.2793 34.6261 27.2793C34.302 27.2793 33.9857 27.3095 33.6792 27.3681C33.0548 27.4841 32.4684 27.7091 31.9314 28.0107C26.1071 31.2853 21.7649 31.6551 20.0284 31.6551C20.0093 31.6551 19.9919 31.6551 19.9744 31.6551C18.5379 31.6551 15.3037 31.3753 10.9427 29.4388C10.8975 29.8666 10.8605 30.3103 10.8279 30.7619C10.7889 31.3671 10.7524 31.9774 10.7453 32.6355C10.7357 33.5508 10.5244 34.479 10.032 35.3311C9.64906 35.9926 9.14701 36.543 8.5687 36.9698C8.35362 37.1276 8.11471 37.2413 7.88086 37.3646C7.94113 37.3334 8.01074 37.3187 8.06982 37.2857C13.8941 34.0111 18.2364 33.6397 19.9744 33.6397C19.9919 33.6397 20.0093 33.6397 20.0284 33.6397C21.7649 33.6397 26.1071 34.0111 31.9314 37.2857C32.4684 37.587 33.0548 37.8123 33.6792 37.9281C33.9857 37.9852 34.302 38.0154 34.6261 38.0154C36.1116 38.0154 37.4572 37.4142 38.4296 36.4414C39.4003 35.469 40.0009 34.1284 40.0009 32.6465C40.0009 31.1664 39.4003 29.8258 38.4296 28.8547Z" fill="url(#paint0_linear)"/>
<path d="M17.3251 12.0011C16.9327 11.7695 16.5625 11.4934 16.2304 11.1699C15.8919 10.8414 15.5918 10.4653 15.3438 10.037C14.8289 9.14406 14.6162 8.16715 14.6425 7.20898C14.6406 7.26055 14.6325 7.31221 14.632 7.36367C14.5606 14.0382 12.7097 17.9776 11.8423 19.48C11.8326 19.496 11.8247 19.5103 11.8152 19.5276C11.2195 20.559 9.85629 22.5658 7.19828 24.8219C5.98605 25.8515 4.50363 26.9336 2.70197 27.9982C2.29058 28.2426 1.90282 28.5345 1.55488 28.8801C1.23881 29.196 0.956012 29.5562 0.722363 29.9624C0.126575 30.9904 -0.0893984 32.1326 0.0329367 33.2273C0.210879 34.8695 1.14507 36.4069 2.68767 37.2968C3.10562 37.5381 3.54104 37.7156 3.98579 37.8347C5.57297 38.2598 7.26332 37.9267 8.5678 36.97C9.14611 36.5431 9.64817 35.9928 10.0311 35.3312C10.5235 34.4791 10.7348 33.5509 10.7444 32.6357C10.8158 25.9611 12.6667 22.0201 13.5359 20.5193C13.5454 20.5033 13.5533 20.4875 13.5629 20.4732C14.2047 19.3611 15.7362 17.1177 18.8185 14.6507C19.1796 14.361 19.5954 14.0657 20.0003 13.7714C19.19 13.1831 18.323 12.5908 17.3251 12.0011Z" fill="#E22B46"/>
<path opacity="0.35" d="M17.3251 12.0011C16.9327 11.7695 16.5625 11.4934 16.2304 11.1699C15.8919 10.8414 15.5918 10.4653 15.3438 10.037C14.8289 9.14406 14.6162 8.16715 14.6425 7.20898C14.6406 7.26055 14.6325 7.31221 14.632 7.36367C14.5606 14.0382 12.7097 17.9776 11.8423 19.48C11.8326 19.496 11.8247 19.5103 11.8152 19.5276C11.2195 20.559 9.85629 22.5658 7.19828 24.8219C5.98605 25.8515 4.50363 26.9336 2.70197 27.9982C2.29058 28.2426 1.90282 28.5345 1.55488 28.8801C1.23881 29.196 0.956012 29.5562 0.722363 29.9624C0.126575 30.9904 -0.0893984 32.1326 0.0329367 33.2273C0.210879 34.8695 1.14507 36.4069 2.68767 37.2968C3.10562 37.5381 3.54104 37.7156 3.98579 37.8347C5.57297 38.2598 7.26332 37.9267 8.5678 36.97C9.14611 36.5431 9.64817 35.9928 10.0311 35.3312C10.5235 34.4791 10.7348 33.5509 10.7444 32.6357C10.8158 25.9611 12.6667 22.0201 13.5359 20.5193C13.5454 20.5033 13.5533 20.4875 13.5629 20.4732C14.2047 19.3611 15.7362 17.1177 18.8185 14.6507C19.1796 14.361 19.5954 14.0657 20.0003 13.7714C19.19 13.1831 18.323 12.5908 17.3251 12.0011Z" fill="url(#paint1_linear)"/>
<path d="M16.2305 11.1698C16.5626 11.4933 16.9328 11.7694 17.3252 12.001C23.0765 15.3994 25.5693 18.9692 26.4384 20.4731C26.4478 20.4874 26.4558 20.5033 26.4638 20.5192C27.1822 21.7598 28.5562 24.6977 29.0572 29.4391C29.9728 29.0326 30.92 28.5789 31.9306 28.0107C32.4676 27.7092 33.054 27.4841 33.6784 27.3682C33.9849 27.3096 34.3012 27.2793 34.6253 27.2793C35.6492 27.2793 36.5967 27.5814 37.4114 28.078C37.3721 28.0537 37.3374 28.0215 37.2976 27.9981C31.5461 24.5998 29.0535 21.0284 28.1844 19.5275C28.1764 19.5102 28.1669 19.4959 28.159 19.4799C27.2899 17.9775 25.439 14.0381 25.369 7.36517C25.3643 6.90983 25.3086 6.45301 25.1959 6.00392C25.08 5.547 24.9036 5.09643 24.6542 4.66806C23.9121 3.38456 22.7189 2.52307 21.3907 2.16779C20.1198 1.82658 18.7217 1.95043 17.4777 2.61033C16.1686 3.30682 15.1915 4.53013 14.807 5.96109C14.4511 7.28743 14.602 8.75021 15.3439 10.0369C15.5918 10.4653 15.892 10.8413 16.2305 11.1698Z" fill="#68CE46"/>
<path opacity="0.35" d="M16.2305 11.1698C16.5626 11.4933 16.9328 11.7694 17.3252 12.001C23.0765 15.3994 25.5693 18.9692 26.4384 20.4731C26.4478 20.4874 26.4558 20.5033 26.4638 20.5192C27.1822 21.7598 28.5562 24.6977 29.0572 29.4391C29.9728 29.0326 30.92 28.5789 31.9306 28.0107C32.4676 27.7092 33.054 27.4841 33.6784 27.3682C33.9849 27.3096 34.3012 27.2793 34.6253 27.2793C35.6492 27.2793 36.5967 27.5814 37.4114 28.078C37.3721 28.0537 37.3374 28.0215 37.2976 27.9981C31.5461 24.5998 29.0535 21.0284 28.1844 19.5275C28.1764 19.5102 28.1669 19.4959 28.159 19.4799C27.2899 17.9775 25.439 14.0381 25.369 7.36517C25.3643 6.90983 25.3086 6.45301 25.1959 6.00392C25.08 5.547 24.9036 5.09643 24.6542 4.66806C23.9121 3.38456 22.7189 2.52307 21.3907 2.16779C20.1198 1.82658 18.7217 1.95043 17.4777 2.61033C16.1686 3.30682 15.1915 4.53013 14.807 5.96109C14.4511 7.28743 14.602 8.75021 15.3439 10.0369C15.5918 10.4653 15.892 10.8413 16.2305 11.1698Z" fill="url(#paint2_linear)"/>
<defs>
<linearGradient id="paint0_linear" x1="26.4239" y1="41.3429" x2="20.7956" y2="25.8576" gradientUnits="userSpaceOnUse">
<stop stop-color="#004854" stop-opacity="0"/>
<stop offset="1" stop-color="#004854"/>
</linearGradient>
<linearGradient id="paint1_linear" x1="1.59967e-07" y1="22.6128" x2="20.0003" y2="22.6128" gradientUnits="userSpaceOnUse">
<stop stop-color="#6D000D" stop-opacity="0"/>
<stop offset="1" stop-color="#6D000D"/>
</linearGradient>
<linearGradient id="paint2_linear" x1="31.443" y1="11.187" x2="21.1257" y2="21.5188" gradientUnits="userSpaceOnUse">
<stop stop-opacity="0"/>
<stop offset="1"/>
</linearGradient>
</defs>
</svg>
