<svg width="20" height="24" viewBox="0 0 20 24" fill="none" xmlns="http://www.w3.org/2000/svg">
<path d="M17.492 7.96901L7.95401 0.975007C7.20903 0.429492 6.32755 0.10092 5.40727 0.0257104C4.48699 -0.049499 3.56385 0.131592 2.74019 0.548912C1.91653 0.966231 1.22451 1.60348 0.740848 2.39001C0.257183 3.17655 0.00076115 4.08166 6.03388e-06 5.00501V19C-0.00143046 19.9243 0.253651 20.8308 0.736856 21.6187C1.22006 22.4065 1.91243 23.0449 2.7369 23.4626C3.56137 23.8803 4.48559 24.0611 5.40668 23.9847C6.32777 23.9083 7.2096 23.5778 7.95401 23.03L17.492 16.036C18.1249 15.5716 18.6395 14.9646 18.9942 14.2643C19.3489 13.564 19.5338 12.79 19.5338 12.005C19.5338 11.22 19.3489 10.446 18.9942 9.7457C18.6395 9.0454 18.1249 8.43846 17.492 7.97401V7.96901Z" fill="#2078C4"/>
</svg>
