<?xml version="1.0" standalone="no"?>
<!DOCTYPE svg PUBLIC "-//W3C//DTD SVG 20010904//EN"
 "http://www.w3.org/TR/2001/REC-SVG-20010904/DTD/svg10.dtd">
<svg version="1.0" xmlns="http://www.w3.org/2000/svg"
 width="700.000000pt" height="700.000000pt" viewBox="0 0 700.000000 700.000000"
 preserveAspectRatio="xMidYMid meet">
<metadata>
Created by potrace 1.11, written by Peter Selinger 2001-2013
</metadata>
<g transform="translate(0.000000,700.000000) scale(0.100000,-0.100000)"
fill="#000000" stroke="none">
<path d="M4379 6556 c-2 -2 -46 -7 -97 -10 -51 -4 -101 -9 -111 -11 -10 -2
-42 -6 -72 -9 -30 -3 -64 -8 -75 -10 -12 -2 -38 -7 -58 -10 -63 -10 -177 -35
-281 -61 -55 -14 -111 -28 -124 -31 -13 -2 -85 -25 -160 -50 -75 -25 -140 -47
-146 -48 -5 -1 -27 -10 -49 -19 -21 -9 -41 -17 -45 -17 -3 -1 -24 -9 -46 -20
-22 -11 -45 -19 -52 -20 -6 0 -24 -7 -40 -15 -15 -8 -104 -51 -197 -96 -93
-45 -230 -117 -305 -161 -145 -85 -402 -254 -438 -288 -12 -11 -25 -20 -28
-20 -5 0 -133 -97 -145 -110 -3 -3 -34 -29 -70 -59 -135 -112 -200 -171 -360
-331 -155 -155 -257 -265 -330 -356 -40 -49 -112 -141 -123 -154 -94 -119
-287 -401 -287 -419 0 -6 -3 -11 -8 -11 -4 0 -12 -9 -17 -19 -6 -11 -39 -71
-75 -133 -81 -142 -183 -347 -245 -493 -7 -16 -19 -46 -28 -65 -28 -65 -121
-349 -133 -405 -1 -5 -7 -30 -14 -55 -7 -25 -13 -49 -15 -55 -1 -5 -5 -17 -8
-25 -3 -8 -8 -26 -10 -40 -7 -35 -35 -155 -54 -230 -3 -14 -7 -34 -8 -45 -1
-11 -9 -56 -18 -100 -9 -44 -19 -93 -22 -110 -2 -16 -7 -39 -9 -50 -2 -11 -7
-42 -10 -70 -4 -27 -11 -79 -16 -115 -14 -104 -20 -151 -25 -210 -2 -30 -8
-95 -12 -145 -4 -49 -8 -216 -7 -370 0 -288 5 -403 28 -580 3 -22 8 -60 11
-85 3 -25 11 -69 16 -98 6 -29 12 -65 14 -80 4 -31 21 -108 36 -164 l10 -38
1109 0 c1050 0 1108 1 1105 18 -2 9 -4 17 -5 17 -1 0 -3 7 -5 16 -1 9 -14 57
-28 105 -26 93 -82 317 -91 369 -3 17 -12 60 -20 96 -8 36 -17 81 -20 100 -5
32 -8 48 -21 109 -3 14 -8 49 -11 79 -6 58 -10 82 -18 109 -2 9 -8 44 -11 77
-4 33 -8 74 -10 90 -2 17 -7 59 -10 95 -4 36 -8 79 -10 95 -20 164 -26 749
-11 925 17 204 36 341 71 520 9 41 17 84 19 95 21 108 89 326 143 460 54 134
272 575 284 575 5 0 9 5 9 10 0 24 316 513 349 540 3 3 22 27 41 53 126 172
414 484 596 644 155 136 427 343 453 343 6 0 11 4 11 8 0 5 10 14 23 20 12 6
40 23 62 37 22 14 47 28 55 32 8 3 17 9 20 13 8 11 330 170 330 164 0 -4 11 1
25 10 14 9 25 14 25 11 0 -3 12 1 28 8 25 13 196 74 231 83 160 39 199 48 270
60 18 3 43 8 55 10 34 7 107 15 147 17 37 1 46 17 10 17 -10 0 -21 3 -25 8 -4
4 -11 7 -14 8 -11 1 -95 16 -117 21 -11 2 -31 6 -45 8 -14 2 -34 6 -45 8 -11
3 -51 8 -90 12 -38 4 -83 10 -100 12 -42 5 -501 14 -506 9z"/>
<path d="M5330 6029 c-179 -22 -288 -50 -460 -122 -128 -52 -385 -196 -455
-254 -5 -5 -41 -30 -80 -58 -38 -27 -72 -51 -75 -54 -3 -4 -23 -19 -45 -36
-161 -120 -495 -478 -692 -742 -32 -43 -61 -79 -65 -81 -5 -2 -8 -9 -8 -17 0
-7 -6 -18 -14 -24 -19 -16 -173 -248 -217 -326 -9 -16 -42 -74 -72 -127 -31
-54 -52 -98 -49 -98 4 0 3 -4 -3 -8 -27 -19 -172 -355 -233 -537 -33 -101 -82
-267 -88 -305 -3 -14 -9 -41 -14 -60 -5 -19 -11 -46 -14 -60 -3 -14 -10 -50
-16 -80 -9 -48 -22 -125 -22 -140 -1 -20 3 -30 10 -26 4 2 28 7 52 11 25 3 52
8 60 10 8 2 35 7 60 10 25 4 65 11 90 17 25 6 54 12 65 13 19 3 62 13 160 38
22 6 45 11 50 13 100 21 408 118 545 170 232 89 572 247 745 347 107 61 319
190 325 197 5 5 43 31 81 55 30 18 144 98 149 104 3 4 30 26 60 51 55 45 69
57 185 161 113 100 291 285 355 369 19 25 40 49 46 55 22 20 112 152 160 235
82 140 156 321 178 435 4 17 9 41 12 55 25 114 21 335 -7 459 -6 25 -12 53
-14 63 -4 16 -23 41 -82 107 -18 20 -40 45 -50 57 -23 27 -42 37 -138 69 -153
51 -331 72 -475 54z"/>
<path d="M6626 5470 c-3 -8 -7 -35 -10 -60 -13 -104 -48 -279 -73 -369 -8 -29
-16 -59 -17 -65 -1 -6 -11 -36 -21 -66 -11 -30 -20 -58 -21 -62 -1 -5 -2 -9
-4 -10 -1 -2 -3 -10 -5 -18 -8 -39 -83 -217 -138 -330 -115 -237 -231 -414
-392 -600 -85 -98 -284 -297 -389 -391 -27 -24 -64 -58 -82 -74 -17 -17 -47
-42 -65 -55 -17 -14 -61 -49 -97 -78 -70 -57 -277 -206 -330 -237 -17 -11 -32
-23 -32 -28 0 -4 -4 -6 -9 -2 -5 3 -12 1 -16 -5 -3 -5 -38 -29 -78 -52 -40
-24 -81 -48 -92 -55 -11 -7 -31 -18 -45 -25 -14 -7 -27 -15 -30 -18 -5 -5 -92
-51 -195 -103 -33 -17 -63 -30 -67 -29 -3 1 -12 -5 -18 -13 -7 -8 -19 -15 -26
-15 -8 0 -22 -4 -32 -10 -20 -12 -127 -59 -197 -88 -66 -27 -301 -115 -315
-118 -3 0 -12 -3 -20 -6 -75 -29 -466 -135 -565 -154 -11 -2 -45 -9 -75 -15
-30 -7 -64 -13 -75 -15 -11 -1 -45 -8 -75 -14 -30 -6 -77 -13 -105 -16 -27 -3
-52 -7 -55 -9 -3 -2 -37 -6 -75 -10 -39 -4 -73 -12 -76 -17 -4 -6 -5 -45 -3
-87 6 -124 14 -273 18 -311 7 -72 17 -156 21 -180 2 -14 7 -47 10 -75 7 -60 9
-73 40 -246 13 -75 31 -163 39 -195 8 -33 17 -70 20 -84 5 -22 21 -85 30 -115
1 -5 8 -30 15 -55 16 -57 95 -296 112 -335 6 -16 13 -35 15 -41 1 -7 8 -25 16
-40 l13 -29 145 1 c140 1 298 9 350 19 14 2 48 6 75 9 55 4 107 12 175 27 25
5 61 11 80 13 19 3 35 5 35 6 0 1 14 4 30 6 17 3 57 12 90 21 33 8 70 17 82
19 12 2 75 20 140 39 65 20 123 37 128 38 47 14 183 62 204 73 14 8 30 14 35
14 13 0 212 88 316 139 132 66 238 126 336 189 10 6 26 15 34 19 8 4 17 9 20
12 11 13 101 71 109 71 5 0 11 4 13 8 2 5 37 33 78 62 41 30 77 57 80 60 3 3
41 34 85 70 92 74 146 124 254 231 110 109 265 282 285 318 5 9 12 18 15 21 8
7 82 101 101 130 8 12 29 41 45 64 17 22 37 53 44 69 8 15 18 27 23 27 4 0 8
4 8 10 0 5 15 34 34 63 54 85 106 184 99 191 -4 3 -2 6 4 6 6 0 14 10 18 22 4
13 8 25 9 28 1 3 14 32 29 65 38 81 120 303 147 395 12 41 24 82 27 90 8 18 7
16 21 65 6 22 13 51 16 65 3 14 12 54 21 89 13 52 36 159 50 232 2 9 6 40 10
69 4 29 9 62 11 74 3 12 7 46 10 76 3 30 8 73 10 95 3 22 7 148 8 280 3 260
-11 424 -54 615 -6 25 -12 54 -15 65 -23 112 -90 297 -155 429 -65 133 -137
246 -144 226z"/>
</g>
</svg>
